<svg xmlns="http://www.w3.org/2000/svg" width="300" height="212" fill="none"><g clip-path="url(#a)"><path stroke="#000" stroke-miterlimit="10" d="M62.358 11.827c0 1.372-.758 2.487-1.697 2.487-.94 0-1.698-1.115-1.698-2.487 0-1.373.758-2.487 1.697-2.487.94 0 1.698 1.114 1.698 2.487ZM64.479 9.34v4.974M62.358 18.457c0 1.373-.758 2.487-1.697 2.487-.94 0-1.698-1.114-1.698-2.487 0-1.372.758-2.487 1.697-2.487.94 0 1.698 1.115 1.698 2.487ZM64.479 15.97v4.974M62.358 25.924c0 1.372-.758 2.487-1.697 2.487-.94 0-1.698-1.115-1.698-2.487 0-1.373.758-2.487 1.697-2.487.94 0 1.698 1.114 1.698 2.487ZM64.479 23.437v4.974M62.358 32.56c0 1.372-.758 2.486-1.697 2.486-.94 0-1.698-1.114-1.698-2.487 0-1.372.758-2.487 1.697-2.487.94 0 1.698 1.115 1.698 2.487ZM64.479 30.072v4.975M67.028 9.34v4.974M72.549 11.827c0 1.372-.759 2.487-1.698 2.487s-1.697-1.115-1.697-2.487c0-1.373.758-2.487 1.697-2.487.94 0 1.698 1.114 1.698 2.487ZM74.675 9.34v4.974M80.196 11.827c0 1.372-.758 2.487-1.698 2.487-.939 0-1.697-1.115-1.697-2.487 0-1.373.758-2.487 1.697-2.487.94 0 1.698 1.114 1.698 2.487ZM82.317 9.34v4.974M84.866 9.34v4.974M70 18.457c0 1.373-.758 2.487-1.698 2.487-.939 0-1.697-1.114-1.697-2.487 0-1.372.758-2.487 1.697-2.487.94 0 1.698 1.115 1.698 2.487ZM72.126 15.97v4.974M77.647 18.457c0 1.373-.759 2.487-1.698 2.487s-1.697-1.114-1.697-2.487c0-1.372.758-2.487 1.697-2.487.94 0 1.698 1.115 1.698 2.487ZM79.768 15.97v4.974M85.289 18.457c0 1.373-.759 2.487-1.698 2.487s-1.697-1.114-1.697-2.487c0-1.372.758-2.487 1.697-2.487.94 0 1.698 1.115 1.698 2.487ZM67.028 23.437v4.974M72.549 25.924c0 1.372-.759 2.487-1.698 2.487s-1.697-1.115-1.697-2.487c0-1.373.758-2.487 1.697-2.487.94 0 1.698 1.114 1.698 2.487ZM74.675 23.437v4.974M80.196 25.924c0 1.372-.758 2.487-1.698 2.487-.939 0-1.697-1.115-1.697-2.487 0-1.373.758-2.487 1.697-2.487.94 0 1.698 1.114 1.698 2.487ZM82.317 23.437v4.974M84.866 23.437v4.974M70 32.56c0 1.372-.758 2.486-1.698 2.486-.939 0-1.697-1.114-1.697-2.487 0-1.372.758-2.487 1.697-2.487.94 0 1.698 1.115 1.698 2.487ZM72.126 30.072v4.975M79.768 30.072v4.975M85.289 32.56c0 1.372-.759 2.486-1.698 2.486s-1.697-1.114-1.697-2.487c0-1.372.758-2.487 1.697-2.487.94 0 1.698 1.115 1.698 2.487ZM77.219 30.072v4.975M74.675 30.072v4.975M90.537 11.827c0 1.372-.759 2.487-1.698 2.487-.94 0-1.698-1.115-1.698-2.487 0-1.373.759-2.487 1.698-2.487.94 0 1.698 1.114 1.698 2.487ZM92.662 9.34v4.974M90.537 18.457c0 1.373-.759 2.487-1.698 2.487-.94 0-1.698-1.114-1.698-2.487 0-1.372.759-2.487 1.698-2.487.94 0 1.698 1.115 1.698 2.487ZM92.662 15.97v4.974M90.537 25.924c0 1.372-.759 2.487-1.698 2.487-.94 0-1.698-1.115-1.698-2.487 0-1.373.759-2.487 1.698-2.487.94 0 1.698 1.114 1.698 2.487ZM92.662 23.437v4.974M90.537 32.56c0 1.372-.759 2.486-1.698 2.486-.94 0-1.698-1.114-1.698-2.487 0-1.372.759-2.487 1.698-2.487.94 0 1.698 1.115 1.698 2.487ZM92.662 30.072v4.975M95.206 9.34v4.974M100.733 11.827c0 1.372-.759 2.487-1.698 2.487-.94 0-1.698-1.115-1.698-2.487 0-1.373.759-2.487 1.698-2.487.94 0 1.698 1.114 1.698 2.487ZM102.853 9.34v4.974M108.375 11.827c0 1.372-.759 2.487-1.698 2.487s-1.698-1.115-1.698-2.487c0-1.373.759-2.487 1.698-2.487s1.698 1.114 1.698 2.487ZM110.5 9.34v4.974M113.049 9.34v4.974M98.184 18.457c0 1.373-.759 2.487-1.698 2.487-.94 0-1.698-1.114-1.698-2.487 0-1.372.759-2.487 1.698-2.487.94 0 1.698 1.115 1.698 2.487ZM100.304 15.97v4.974M105.826 18.457c0 1.373-.759 2.487-1.698 2.487s-1.698-1.114-1.698-2.487c0-1.372.759-2.487 1.698-2.487s1.698 1.115 1.698 2.487ZM107.951 15.97v4.974M113.473 18.457c0 1.373-.759 2.487-1.698 2.487s-1.698-1.114-1.698-2.487c0-1.372.759-2.487 1.698-2.487s1.698 1.115 1.698 2.487ZM95.206 23.437v4.974M100.733 25.924c0 1.372-.759 2.487-1.698 2.487-.94 0-1.698-1.115-1.698-2.487 0-1.373.759-2.487 1.698-2.487.94 0 1.698 1.114 1.698 2.487ZM102.853 23.437v4.974M108.375 25.924c0 1.372-.759 2.487-1.698 2.487s-1.698-1.115-1.698-2.487c0-1.373.759-2.487 1.698-2.487s1.698 1.114 1.698 2.487ZM110.5 23.437v4.974M113.049 23.437v4.974M98.184 32.56c0 1.372-.759 2.486-1.698 2.486-.94 0-1.698-1.114-1.698-2.487 0-1.372.759-2.487 1.698-2.487.94 0 1.698 1.115 1.698 2.487ZM100.304 30.072v4.975M107.951 30.072v4.975M113.473 32.56c0 1.372-.759 2.486-1.698 2.486s-1.698-1.114-1.698-2.487c0-1.372.759-2.487 1.698-2.487s1.698 1.115 1.698 2.487ZM105.402 30.072v4.975M102.853 30.072v4.975M80.268 174.675c0 1.373-.758 2.487-1.697 2.487-.94 0-1.698-1.114-1.698-2.487s.759-2.487 1.698-2.487 1.697 1.114 1.697 2.487ZM82.394 172.188v4.974M80.268 181.311c0 1.372-.758 2.487-1.697 2.487-.94 0-1.698-1.115-1.698-2.487 0-1.373.759-2.487 1.698-2.487s1.697 1.114 1.697 2.487ZM82.394 178.824v4.974M80.268 188.772c0 1.373-.758 2.487-1.697 2.487-.94 0-1.698-1.114-1.698-2.487s.759-2.487 1.698-2.487 1.697 1.114 1.697 2.487ZM82.394 186.285v4.974M80.268 195.408c0 1.372-.758 2.487-1.697 2.487-.94 0-1.698-1.115-1.698-2.487 0-1.373.759-2.487 1.698-2.487s1.697 1.114 1.697 2.487ZM82.394 192.921v4.974M84.943 172.188v4.974M90.464 174.675c0 1.373-.758 2.487-1.697 2.487-.94 0-1.698-1.114-1.698-2.487s.759-2.487 1.698-2.487 1.697 1.114 1.697 2.487ZM92.585 172.188v4.974M98.106 174.675c0 1.373-.758 2.487-1.697 2.487-.94 0-1.698-1.114-1.698-2.487s.759-2.487 1.698-2.487 1.697 1.114 1.697 2.487ZM100.232 172.188v4.974M102.781 172.188v4.974M87.915 181.311c0 1.372-.758 2.487-1.697 2.487-.94 0-1.698-1.115-1.698-2.487 0-1.373.759-2.487 1.698-2.487s1.697 1.114 1.697 2.487ZM90.036 178.824v4.974M95.557 181.311c0 1.372-.758 2.487-1.697 2.487-.94 0-1.698-1.115-1.698-2.487 0-1.373.758-2.487 1.698-2.487.939 0 1.697 1.114 1.697 2.487ZM97.683 178.824v4.974M103.204 181.311c0 1.372-.758 2.487-1.697 2.487-.939 0-1.698-1.115-1.698-2.487 0-1.373.759-2.487 1.698-2.487s1.697 1.114 1.697 2.487ZM84.943 186.285v4.974M90.464 188.772c0 1.373-.758 2.487-1.697 2.487-.94 0-1.698-1.114-1.698-2.487s.759-2.487 1.698-2.487 1.697 1.114 1.697 2.487ZM92.585 186.285v4.974M98.106 188.772c0 1.373-.758 2.487-1.697 2.487-.94 0-1.698-1.114-1.698-2.487s.759-2.487 1.698-2.487 1.697 1.114 1.697 2.487ZM100.232 186.285v4.974M102.781 186.285v4.974M87.915 195.408c0 1.372-.758 2.487-1.697 2.487-.94 0-1.698-1.115-1.698-2.487 0-1.373.759-2.487 1.698-2.487s1.697 1.114 1.697 2.487ZM90.036 192.921v4.974M97.683 192.921v4.974M103.204 195.408c0 1.372-.758 2.487-1.697 2.487-.939 0-1.698-1.115-1.698-2.487 0-1.373.759-2.487 1.698-2.487s1.697 1.114 1.697 2.487ZM95.134 192.921v4.974M92.585 192.921v4.974M108.452 174.675c0 1.373-.759 2.487-1.698 2.487s-1.697-1.114-1.697-2.487.758-2.487 1.697-2.487c.939 0 1.698 1.114 1.698 2.487ZM110.573 172.188v4.974M108.452 181.311c0 1.372-.759 2.487-1.698 2.487s-1.697-1.115-1.697-2.487c0-1.373.758-2.487 1.697-2.487.939 0 1.698 1.114 1.698 2.487ZM110.573 178.824v4.974M108.452 188.772c0 1.373-.759 2.487-1.698 2.487s-1.697-1.114-1.697-2.487.758-2.487 1.697-2.487c.939 0 1.698 1.114 1.698 2.487ZM110.573 186.285v4.974M108.452 195.408c0 1.372-.759 2.487-1.698 2.487s-1.697-1.115-1.697-2.487c0-1.373.758-2.487 1.697-2.487.939 0 1.698 1.114 1.698 2.487ZM110.573 192.921v4.974M113.122 172.188v4.974M118.643 174.675c0 1.373-.759 2.487-1.698 2.487s-1.697-1.114-1.697-2.487.758-2.487 1.697-2.487c.939 0 1.698 1.114 1.698 2.487ZM120.769 172.188v4.974M126.29 174.675c0 1.373-.758 2.487-1.698 2.487-.939 0-1.697-1.114-1.697-2.487s.758-2.487 1.697-2.487c.94 0 1.698 1.114 1.698 2.487ZM128.411 172.188v4.974M130.96 172.188v4.974M116.094 181.311c0 1.372-.759 2.487-1.698 2.487s-1.697-1.115-1.697-2.487c0-1.373.758-2.487 1.697-2.487.939 0 1.698 1.114 1.698 2.487ZM118.22 178.824v4.974M123.741 181.311c0 1.372-.759 2.487-1.698 2.487s-1.697-1.115-1.697-2.487c0-1.373.758-2.487 1.697-2.487.939 0 1.698 1.114 1.698 2.487ZM125.862 178.824v4.974M131.383 181.311c0 1.372-.759 2.487-1.698 2.487s-1.697-1.115-1.697-2.487c0-1.373.758-2.487 1.697-2.487.939 0 1.698 1.114 1.698 2.487ZM113.122 186.285v4.974M118.643 188.772c0 1.373-.759 2.487-1.698 2.487s-1.697-1.114-1.697-2.487.758-2.487 1.697-2.487c.939 0 1.698 1.114 1.698 2.487ZM120.769 186.285v4.974M126.29 188.772c0 1.373-.758 2.487-1.698 2.487-.939 0-1.697-1.114-1.697-2.487s.758-2.487 1.697-2.487c.94 0 1.698 1.114 1.698 2.487ZM128.411 186.285v4.974M130.96 186.285v4.974M116.094 195.408c0 1.372-.759 2.487-1.698 2.487s-1.697-1.115-1.697-2.487c0-1.373.758-2.487 1.697-2.487.939 0 1.698 1.114 1.698 2.487ZM118.22 192.921v4.974M125.862 192.921v4.974M131.383 195.408c0 1.372-.759 2.487-1.698 2.487s-1.697-1.115-1.697-2.487c0-1.373.758-2.487 1.697-2.487.939 0 1.698 1.114 1.698 2.487ZM123.318 192.921v4.974M120.769 192.921v4.974M23.855 174.675c0 1.373-.759 2.487-1.698 2.487-.94 0-1.698-1.114-1.698-2.487s.759-2.487 1.698-2.487 1.698 1.114 1.698 2.487ZM25.98 172.188v4.974M23.855 181.311c0 1.372-.759 2.487-1.698 2.487-.94 0-1.698-1.115-1.698-2.487 0-1.373.759-2.487 1.698-2.487s1.698 1.114 1.698 2.487ZM25.98 178.824v4.974M23.855 188.772c0 1.373-.759 2.487-1.698 2.487-.94 0-1.698-1.114-1.698-2.487s.759-2.487 1.698-2.487 1.698 1.114 1.698 2.487ZM25.98 186.285v4.974M23.855 195.408c0 1.372-.759 2.487-1.698 2.487-.94 0-1.698-1.115-1.698-2.487 0-1.373.759-2.487 1.698-2.487s1.698 1.114 1.698 2.487ZM25.98 192.921v4.974M28.53 172.188v4.974M34.05 174.675c0 1.373-.758 2.487-1.697 2.487-.94 0-1.698-1.114-1.698-2.487s.759-2.487 1.698-2.487c.94 0 1.698 1.114 1.698 2.487ZM36.176 172.188v4.974M41.698 174.675c0 1.373-.759 2.487-1.698 2.487-.94 0-1.698-1.114-1.698-2.487s.759-2.487 1.698-2.487 1.698 1.114 1.698 2.487ZM43.818 172.188v4.974M46.367 172.188v4.974M31.502 181.311c0 1.372-.76 2.487-1.698 2.487-.94 0-1.698-1.115-1.698-2.487 0-1.373.759-2.487 1.698-2.487s1.698 1.114 1.698 2.487ZM33.627 178.824v4.974M39.149 181.311c0 1.372-.759 2.487-1.698 2.487-.94 0-1.698-1.115-1.698-2.487 0-1.373.759-2.487 1.698-2.487.94 0 1.698 1.114 1.698 2.487ZM41.27 178.824v4.974M46.79 181.311c0 1.372-.758 2.487-1.697 2.487-.94 0-1.698-1.115-1.698-2.487 0-1.373.759-2.487 1.698-2.487s1.697 1.114 1.697 2.487ZM28.53 186.285v4.974M34.05 188.772c0 1.373-.758 2.487-1.697 2.487-.94 0-1.698-1.114-1.698-2.487s.759-2.487 1.698-2.487c.94 0 1.698 1.114 1.698 2.487ZM36.176 186.285v4.974M41.698 188.772c0 1.373-.759 2.487-1.698 2.487-.94 0-1.698-1.114-1.698-2.487s.759-2.487 1.698-2.487 1.698 1.114 1.698 2.487ZM43.818 186.285v4.974M46.367 186.285v4.974M31.502 195.408c0 1.372-.76 2.487-1.698 2.487-.94 0-1.698-1.115-1.698-2.487 0-1.373.759-2.487 1.698-2.487s1.698 1.114 1.698 2.487ZM33.627 192.921v4.974M41.27 192.921v4.974M46.79 195.408c0 1.372-.758 2.487-1.697 2.487-.94 0-1.698-1.115-1.698-2.487 0-1.373.759-2.487 1.698-2.487s1.697 1.114 1.697 2.487ZM38.72 192.921v4.974M36.176 192.921v4.974M52.038 174.675c0 1.373-.758 2.487-1.697 2.487-.94 0-1.698-1.114-1.698-2.487s.758-2.487 1.698-2.487c.939 0 1.697 1.114 1.697 2.487ZM54.159 172.188v4.974M52.038 181.311c0 1.372-.758 2.487-1.697 2.487-.94 0-1.698-1.115-1.698-2.487 0-1.373.758-2.487 1.698-2.487.939 0 1.697 1.114 1.697 2.487ZM54.159 178.824v4.974M52.038 188.772c0 1.373-.758 2.487-1.697 2.487-.94 0-1.698-1.114-1.698-2.487s.758-2.487 1.698-2.487c.939 0 1.697 1.114 1.697 2.487ZM54.159 186.285v4.974M52.038 195.408c0 1.372-.758 2.487-1.697 2.487-.94 0-1.698-1.115-1.698-2.487 0-1.373.758-2.487 1.698-2.487.939 0 1.697 1.114 1.697 2.487ZM54.159 192.921v4.974M56.708 172.188v4.974M62.23 174.675c0 1.373-.76 2.487-1.699 2.487-.939 0-1.697-1.114-1.697-2.487s.758-2.487 1.697-2.487c.94 0 1.698 1.114 1.698 2.487ZM64.355 172.188v4.974M69.876 174.675c0 1.373-.758 2.487-1.698 2.487-.939 0-1.697-1.114-1.697-2.487s.758-2.487 1.698-2.487c.939 0 1.697 1.114 1.697 2.487ZM72.002 172.188v4.974M74.551 172.188v4.974M59.685 181.311c0 1.372-.758 2.487-1.697 2.487-.94 0-1.698-1.115-1.698-2.487 0-1.373.758-2.487 1.698-2.487.939 0 1.697 1.114 1.697 2.487ZM61.806 178.824v4.974M67.327 181.311c0 1.372-.758 2.487-1.698 2.487-.939 0-1.697-1.115-1.697-2.487 0-1.373.758-2.487 1.697-2.487.94 0 1.698 1.114 1.698 2.487ZM69.453 178.824v4.974M74.974 181.311c0 1.372-.758 2.487-1.698 2.487-.939 0-1.697-1.115-1.697-2.487 0-1.373.758-2.487 1.698-2.487.939 0 1.697 1.114 1.697 2.487ZM56.708 186.285v4.974M62.23 188.772c0 1.373-.76 2.487-1.699 2.487-.939 0-1.697-1.114-1.697-2.487s.758-2.487 1.697-2.487c.94 0 1.698 1.114 1.698 2.487ZM64.355 186.285v4.974M69.876 188.772c0 1.373-.758 2.487-1.698 2.487-.939 0-1.697-1.114-1.697-2.487s.758-2.487 1.698-2.487c.939 0 1.697 1.114 1.697 2.487ZM72.002 186.285v4.974M74.551 186.285v4.974M59.685 195.408c0 1.372-.758 2.487-1.697 2.487-.94 0-1.698-1.115-1.698-2.487 0-1.373.758-2.487 1.698-2.487.939 0 1.697 1.114 1.697 2.487ZM61.806 192.921v4.974M69.453 192.921v4.974M74.974 195.408c0 1.372-.758 2.487-1.698 2.487-.939 0-1.697-1.115-1.697-2.487 0-1.373.758-2.487 1.698-2.487.939 0 1.697 1.114 1.697 2.487ZM66.904 192.921v4.974M64.355 192.921v4.974M.418 172.188v4.974M5.94 174.675c0 1.373-.76 2.487-1.698 2.487-.94 0-1.698-1.114-1.698-2.487s.758-2.487 1.698-2.487c.939 0 1.697 1.114 1.697 2.487ZM8.065 172.188v4.974M13.586 174.675c0 1.373-.758 2.487-1.697 2.487-.94 0-1.698-1.114-1.698-2.487s.758-2.487 1.697-2.487c.94 0 1.698 1.114 1.698 2.487ZM15.712 172.188v4.974M18.256 172.188v4.974M3.395 181.311c0 1.372-.758 2.487-1.697 2.487-.94 0-1.698-1.115-1.698-2.487 0-1.373.759-2.487 1.698-2.487s1.697 1.114 1.697 2.487ZM5.516 178.824v4.974M11.037 181.311c0 1.372-.758 2.487-1.698 2.487-.939 0-1.697-1.115-1.697-2.487 0-1.373.758-2.487 1.697-2.487.94 0 1.698 1.114 1.698 2.487ZM13.163 178.824v4.974M18.684 181.311c0 1.372-.758 2.487-1.697 2.487-.94 0-1.698-1.115-1.698-2.487 0-1.373.758-2.487 1.698-2.487.939 0 1.697 1.114 1.697 2.487ZM.418 186.285v4.974M5.94 188.772c0 1.373-.76 2.487-1.698 2.487-.94 0-1.698-1.114-1.698-2.487s.758-2.487 1.698-2.487c.939 0 1.697 1.114 1.697 2.487ZM8.065 186.285v4.974M13.586 188.772c0 1.373-.758 2.487-1.697 2.487-.94 0-1.698-1.114-1.698-2.487s.758-2.487 1.697-2.487c.94 0 1.698 1.114 1.698 2.487ZM15.712 186.285v4.974M18.256 186.285v4.974M3.395 195.408c0 1.372-.758 2.487-1.697 2.487-.94 0-1.698-1.115-1.698-2.487 0-1.373.759-2.487 1.698-2.487s1.697 1.114 1.697 2.487ZM5.516 192.921v4.974M13.163 192.921v4.974M18.684 195.408c0 1.372-.758 2.487-1.697 2.487-.94 0-1.698-1.115-1.698-2.487 0-1.373.758-2.487 1.698-2.487.939 0 1.697 1.114 1.697 2.487ZM10.614 192.921v4.974M8.065 192.921v4.974M211.502 5h81.486c3.343 0 6.037 2.626 6.037 5.893v55.985c0 3.266-2.694 5.893-6.037 5.893h-81.486c-3.344 0-6.038-2.627-6.038-5.893V10.893c0-3.267 2.694-5.893 6.038-5.893ZM292.988 10.893h-1.507M285.444 10.893h-1.507M277.895 10.893h-1.507M299.025 16.785h-93.561" vector-effect="non-scaling-stroke"/><path stroke="#000" stroke-miterlimit="10" d="M256.77 22.678V27.1l9.742 1.357a26.125 26.125 0 0 0 3.55 8.431l-5.888 7.668 6.404 6.249 7.874-5.759a27.583 27.583 0 0 0 8.617 3.494l1.393 9.5h4.526M292.988 38.885c-9.17 0-16.6-7.254-16.6-16.207M286.816 82.017h-38.792v76.76h38.792v-76.76ZM52.291 10.346H13.499v76.76H52.29v-76.76Z" vector-effect="non-scaling-stroke"/><path fill="#fff" stroke="#000" d="M140.222 174.881c44.793 0 81.109-35.443 81.109-79.164 0-43.72-36.31-79.159-81.109-79.159-44.799 0-81.11 35.444-81.11 79.164 0 43.721 36.316 79.165 81.11 79.165v-.006Z" vector-effect="non-scaling-stroke"/><path fill="#fff" d="M138.127 161.672c38.901 0 70.438-30.8 70.438-68.788 0-37.987-31.537-68.787-70.438-68.787" vector-effect="non-scaling-stroke"/><path stroke="#000" d="M138.127 161.672c38.901 0 70.438-30.8 70.438-68.788 0-37.987-31.537-68.787-70.438-68.787" vector-effect="non-scaling-stroke"/><path fill="#fff" d="M200.965 92.451c0-34.18-28.39-61.883-63.406-61.883-35.015 0-63.405 27.703-63.405 61.883" vector-effect="non-scaling-stroke"/><path stroke="#000" d="M200.965 92.451c0-34.18-28.39-61.883-63.406-61.883-35.015 0-63.405 27.703-63.405 61.883" vector-effect="non-scaling-stroke"/><path stroke="#000" stroke-miterlimit="10" d="M35.908 45.877s20.702 66.78 76.295 81.074" vector-effect="non-scaling-stroke"/><path fill="#A2A2A0" stroke="#000" stroke-miterlimit="10" d="m138.251 78.617-2.25-.676a.658.658 0 0 1-.449-.83l3.411-10.8a.683.683 0 0 1 .851-.439l2.25.676c.361.108.562.48.449.83l-3.411 10.8a.683.683 0 0 1-.851.44Z" vector-effect="non-scaling-stroke"/><path fill="#fff" d="M134.912 79.17s-1.868-4.253 0-6.817c0 0 1.729-1.12 2.353 4.185 0 0 4.701-3.71 4.907-6.615 0 0 3.375 1.821 2.204 5.129 0 0-.573 1.92-4.608 6.981" vector-effect="non-scaling-stroke"/><path stroke="#000" stroke-miterlimit="10" d="M134.912 79.17s-1.868-4.253 0-6.817c0 0 1.729-1.12 2.353 4.185 0 0 4.701-3.71 4.907-6.615 0 0 3.375 1.821 2.204 5.129 0 0-.573 1.92-4.608 6.981" vector-effect="non-scaling-stroke"/><path fill="#fff" d="M141.754 75.207s2.281-2.555 1.935-3.984Z" vector-effect="non-scaling-stroke"/><path stroke="#000" stroke-miterlimit="10" d="M141.754 75.207s2.281-2.555 1.935-3.984" vector-effect="non-scaling-stroke"/><path fill="#fff" stroke="#000" stroke-miterlimit="10" d="m82.007 190.81-6.486 9.783s4.257 5.424 10.857 5.424h9.995s.185-3.009-2.653-5c-2.838-1.992-2.59-3.86-2.404-5.609.185-1.75-9.309-4.598-9.309-4.598ZM99.479 193.576v12.446h18.803s.485-2.89-3.344-5.583c-3.235-2.276-4.876-4.19-5.433-6.863-.558-2.673-10.031 0-10.031 0h.005Z" vector-effect="non-scaling-stroke"/><path fill="#A2A2A0" stroke="#000" stroke-miterlimit="10" d="M114.329 147.234H94.257v46.342h20.072v-46.342Z" vector-effect="non-scaling-stroke"/><path fill="#A2A2A0" stroke="#000" stroke-miterlimit="10" d="m113.963 117.642 5.733 38.271a17.97 17.97 0 0 1-3.447 14.035l-21.987 28.783-16.821-10.888 24.107-34.633-8.803-28.401 21.223-7.172-.005.005ZM99.479 206.022h18.803s.392-2.333-2.307-4.758H99.474v4.758h.005ZM94.195 201.383c-10.052 1.837-16.254-4.433-16.254-4.438l-2.42 3.648s4.257 5.424 10.857 5.424h9.995s.165-2.663-2.183-4.639l.005.005Z" vector-effect="non-scaling-stroke"/><path fill="#A2A2A0" stroke="#000" stroke-miterlimit="10" d="M114.453 146.992h9.448l-10.568-52.379-5.402 11.594 6.517 40.785h.005Z" vector-effect="non-scaling-stroke"/><path fill="#fff" stroke="#000" stroke-miterlimit="10" d="m113.163 78.364.975-5.087s3.855 1.32 5.826.737c1.759-1.155 2.735-1.909 2.59-4.695l.222.098c.583.248 1.187-.305.97-.888-.346-.939-.82-1.909-1.181-2.6.01-.13.025-.258.041-.392.531-4.392-3.468-6.92-5.614-7.74-2.147-.816-5.145-2.116-7.9-.098-2.807 2.053-.449 6.672-1.904 12.89-.299 1.284-1.068 3.09-3.055 5.397l9.035 2.373-.005.005Z" vector-effect="non-scaling-stroke"/><path fill="#fff" stroke="#000" stroke-miterlimit="10" d="M121.615 61.146c-1.496-2.157-3.88-3.19-4.577-3.458l-.304-.113c-2.121-.815-5.026-1.93-7.714.03-1.641 1.203-1.569 3.272-1.476 5.894.051 1.429.108 3.044-.088 4.824l-.01.114.119.01c.263.026.521.041.768.041 5.284 0 7.317-5.918 8.081-6.718 3.034.526 5.139-.449 5.16-.46l.119-.056-.078-.108Z" vector-effect="non-scaling-stroke"/><path fill="#E3E3DF" stroke="#000" stroke-miterlimit="10" d="M106.899 75.191h8.509l-.547 5.02-7.962-5.02Z" vector-effect="non-scaling-stroke"/><path fill="#fff" d="M115.413 64.262s-1.512-1.677-2.818-.64c-1.656 1.316 0 3.344.852 3.576" vector-effect="non-scaling-stroke"/><path stroke="#000" stroke-miterlimit="10" d="M115.413 64.262s-1.512-1.677-2.818-.64c-1.656 1.316 0 3.344.852 3.576" vector-effect="non-scaling-stroke"/><path fill="#fff" d="M115.413 64.262s-1.512-1.677-2.818-.64c-1.656 1.316 0 3.344.852 3.576" vector-effect="non-scaling-stroke"/><path stroke="#000" stroke-miterlimit="10" d="M115.413 64.262s-1.512-1.677-2.818-.64c-1.656 1.316 0 3.344.852 3.576" vector-effect="non-scaling-stroke"/><path fill="#fff" d="M122.606 70.83c-2.193 0-2.642-1.805-2.642-1.82Z" vector-effect="non-scaling-stroke"/><path stroke="#000" stroke-miterlimit="10" d="M122.606 70.83c-2.193 0-2.642-1.805-2.642-1.82" vector-effect="non-scaling-stroke"/><path fill="#E3E3DF" stroke="#000" stroke-miterlimit="10" d="m115.49 100.8-1.037 46.192H81.274L97.92 81.894c1.543-6.022 9.154-8.736 14.257-4.949 1.703 1.265 2.627 3.127 3.979 4.665 1.016 1.16 2.095 2.28 3.137 3.416l4.974 5.413s.016.015.016.02l8.312-12.636 10.496 6.486-10.527 18.374c-2.956 5.392-10.593 6.063-14.494 1.28l-2.58-3.168v.005Z" vector-effect="non-scaling-stroke"/><path fill="#fff" d="m115.49 100.8-4.334-4.634Z" vector-effect="non-scaling-stroke"/><path stroke="#000" stroke-miterlimit="10" d="m115.49 100.8-4.334-4.634" vector-effect="non-scaling-stroke"/><path fill="#202020" stroke="#000" d="m116.311 62.817 7.585.465s-2.24-10.841-15.232-7.461c0 0-8.442 3.467-8.84 14.102l15.589 2.322.903-9.428h-.005Z" vector-effect="non-scaling-stroke"/><path fill="#fff" stroke="#000" d="M300 184.066c0-10.439-9.004-18.901-20.108-18.901H176.837c-11.109 0-20.108 8.462-20.108 18.901s9.004 18.901 20.108 18.901h103.055c11.109 0 20.108-8.462 20.108-18.901Z" vector-effect="non-scaling-stroke"/><path fill="#fff" stroke="#000" stroke-miterlimit="10" d="m64.773 105.826-6.811 3.354a28.933 28.933 0 0 0-9.407-5.878l.258-7.435-9.133-1.584-2.384 7.064a29.612 29.612 0 0 0-10.924 2.332l-5.19-5.423-7.606 5.181 3.436 6.651a28.244 28.244 0 0 0-6.021 9.185l-7.616-.253-1.626 8.916 7.24 2.327a27.715 27.715 0 0 0 2.389 10.666l-5.558 5.067 5.31 7.425 6.811-3.354a28.912 28.912 0 0 0 9.407 5.877l-.258 7.436 9.133 1.584 2.384-7.064a29.612 29.612 0 0 0 10.923-2.332l5.191 5.423 7.606-5.181-3.436-6.651a28.247 28.247 0 0 0 6.021-9.185l7.616.253 1.626-8.916-7.24-2.327a27.713 27.713 0 0 0-2.389-10.666l5.557-5.067-5.31-7.425Z" vector-effect="non-scaling-stroke"/><path fill="#E3E3DF" stroke="#000" stroke-miterlimit="10" d="M37.952 145.206c8.818 0 15.97-6.981 15.97-15.588s-7.152-15.588-15.97-15.588c-8.819 0-15.97 6.981-15.97 15.588s7.151 15.588 15.97 15.588Z" vector-effect="non-scaling-stroke"/><path fill="#fff" stroke="#000" stroke-miterlimit="10" d="M37.952 120.31c-1.719 1.46-4.345 2.409-7.302 2.471v7.585c0 1.791.738 3.499 2.054 4.748l5.242 3.818 5.253-3.818a6.552 6.552 0 0 0 2.059-4.753v-7.58c-2.957-.062-5.583-1.016-7.301-2.471h-.005Zm.773 8.844v3.364h-1.553v-3.364a1.167 1.167 0 0 1-.423-.893c0-.645.537-1.171 1.203-1.171.665 0 1.202.526 1.202 1.171 0 .356-.165.676-.423.893h-.006Z" vector-effect="non-scaling-stroke"/><path fill="#E3E3DF" stroke="#000" stroke-miterlimit="10" d="M198.932 37.977c.021.955-.047 1.9-.212 2.813-.01.056-.025.113-.036.17l-34.804.247-7.838.052-32.1.227a11.985 11.985 0 0 1-.376-.67 16.082 16.082 0 0 1-1.915-7.245c-.227-9.443 7.776-17.286 17.879-17.518a19.74 19.74 0 0 1 4.753.47c2.59-6.033 8.627-10.336 15.758-10.501 9.68-.222 17.714 7.26 17.941 16.708v.211c.945-.16 1.915-.258 2.906-.278 9.752-.227 17.827 6.63 18.039 15.314h.005Z" vector-effect="non-scaling-stroke"/><path stroke="#000" stroke-miterlimit="10" d="M104.133 54.561V49.16h5.263M109.665 88.225h-5.537v-5.14M154.613 82.823v5.402h-5.263M149.076 49.159h5.537v5.14" vector-effect="non-scaling-stroke"/><path fill="#000" d="M186.016 191.822a.403.403 0 0 1-.211-.062 20.058 20.058 0 0 1-3.545-2.787.384.384 0 0 1 0-.547.403.403 0 0 1 .557 0 19.347 19.347 0 0 0 3.411 2.678.377.377 0 0 1 .119.532.408.408 0 0 1-.336.18l.005.006ZM181.058 187.415a.416.416 0 0 1-.32-.155c-1.347-1.775-2.054-3.545-2.054-5.119 0-.211.176-.387.397-.387.222 0 .398.176.398.387 0 1.383.676 3.04 1.899 4.66a.383.383 0 0 1-.083.542.41.41 0 0 1-.237.077v-.005ZM173.431 177.116a.407.407 0 0 1-.278-.109.38.38 0 0 1-.005-.547 8.358 8.358 0 0 1 5.928-2.435c1.156 0 2.276.227 3.323.676a.384.384 0 0 1 .202.511.403.403 0 0 1-.522.201 7.567 7.567 0 0 0-3.008-.614 7.562 7.562 0 0 0-5.366 2.203.397.397 0 0 1-.284.114h.01ZM171.455 185.227a.392.392 0 0 1-.387-.31 13.557 13.557 0 0 1-.299-2.781c0-1.125.232-2.219.691-3.245a.403.403 0 0 1 .521-.202c.202.088.289.315.202.511a7.103 7.103 0 0 0-.63 2.936c0 .862.093 1.744.284 2.627a.391.391 0 0 1-.305.459.448.448 0 0 1-.082.01l.005-.005ZM175.913 193.498a.426.426 0 0 1-.299-.129c-1.827-2.033-3.168-4.205-3.983-6.46a.387.387 0 0 1 .242-.495.4.4 0 0 1 .506.237c.779 2.162 2.069 4.252 3.828 6.208a.381.381 0 0 1-.036.547.424.424 0 0 1-.263.098l.005-.006ZM189.726 184.912a.407.407 0 0 1-.227-.072 13.72 13.72 0 0 1-1.269-1.001 5.657 5.657 0 0 1-1.77-3.096 7.296 7.296 0 0 0-2.121-3.844.377.377 0 0 1 0-.547.393.393 0 0 1 .558 0 8.025 8.025 0 0 1 2.342 4.247 4.909 4.909 0 0 0 1.528 2.672c.397.351.784.661 1.192.945a.379.379 0 0 1 .093.536.394.394 0 0 1-.326.16Z" vector-effect="non-scaling-stroke"/><path fill="#000" d="M184.097 179.432a.397.397 0 0 1-.335-.18 5.559 5.559 0 0 0-4.686-2.523c-.5 0-.995.067-1.475.196a.393.393 0 0 1-.485-.269.386.386 0 0 1 .273-.474 6.379 6.379 0 0 1 1.687-.222c2.183 0 4.185 1.078 5.356 2.884a.378.378 0 0 1-.123.532.41.41 0 0 1-.212.062v-.006ZM173.473 185.227a.397.397 0 0 1-.387-.299 11.913 11.913 0 0 1-.346-2.792c0-1.961.924-3.761 2.533-4.943a.4.4 0 0 1 .553.077.382.382 0 0 1-.078.542c-1.409 1.032-2.219 2.611-2.219 4.324 0 .857.109 1.739.32 2.616a.385.385 0 0 1-.294.465c-.031.005-.062.01-.093.01h.011ZM179.283 194.113a.388.388 0 0 1-.263-.098c-2.245-1.966-3.989-4.237-5.052-6.569a.384.384 0 0 1 .201-.511.395.395 0 0 1 .521.196c1.017 2.229 2.694 4.412 4.856 6.306a.381.381 0 0 1 .031.547.409.409 0 0 1-.294.129ZM189.319 186.981a.405.405 0 0 1-.212-.061c-1.285-.795-2.466-1.786-3.333-2.787a5.05 5.05 0 0 1-1.202-2.673.392.392 0 0 1 .34-.433.399.399 0 0 1 .444.335 4.267 4.267 0 0 0 1.022 2.271c.815.944 1.935 1.878 3.152 2.631a.381.381 0 0 1 .124.532.405.405 0 0 1-.335.18v.005Z" vector-effect="non-scaling-stroke"/><path fill="#000" d="M175.449 180.98a.384.384 0 0 1-.361-.541c.696-1.548 2.26-2.549 3.988-2.549h.026a4.36 4.36 0 0 1 3.065 1.238c.268.263.501.562.692.888a.382.382 0 0 1-.145.526.401.401 0 0 1-.542-.145 3.548 3.548 0 0 0-3.07-1.733h-.026c-1.413 0-2.693.82-3.266 2.084a.4.4 0 0 1-.361.232ZM182.028 193.803a.395.395 0 0 1-.243-.083 23.17 23.17 0 0 1-2.755-2.43.38.38 0 0 1 .021-.547.402.402 0 0 1 .557.016c.794.83 1.692 1.62 2.657 2.347a.376.376 0 0 1 .072.542.4.4 0 0 1-.314.15l.005.005ZM177.693 189.479a.39.39 0 0 1-.319-.16c-1.425-1.945-2.312-4.009-2.565-5.97a.39.39 0 0 1 .341-.434.4.4 0 0 1 .443.336c.238 1.837 1.079 3.777 2.426 5.619a.375.375 0 0 1-.093.537.431.431 0 0 1-.233.072ZM188.55 188.793a.43.43 0 0 1-.206-.057c-1.615-.96-3.086-2.178-4.139-3.421-1.011-1.197-1.568-2.327-1.568-3.179 0-.211.175-.387.397-.387.222 0 .397.176.397.387 0 1.337 2.039 3.989 5.325 5.939a.384.384 0 0 1-.206.718Z" vector-effect="non-scaling-stroke"/><path fill="#000" d="M184.236 192.972a.393.393 0 0 1-.222-.067c-2.167-1.46-3.993-3.209-5.273-5.057-1.331-1.919-2.033-3.89-2.033-5.707 0-1.279 1.063-2.316 2.374-2.316 1.31 0 2.373 1.042 2.373 2.316 0 2.235 2.611 5.408 6.208 7.549a.386.386 0 0 1 .134.532.404.404 0 0 1-.542.129c-3.88-2.312-6.589-5.686-6.589-8.21 0-.851-.712-1.542-1.584-1.542-.872 0-1.585.691-1.585 1.542 0 3.354 2.668 7.235 6.966 10.129a.38.38 0 0 1 .104.537.401.401 0 0 1-.325.165h-.006Z" vector-effect="non-scaling-stroke"/><path fill="#A2A2A0" stroke="#000" stroke-miterlimit="10" d="M250.31 180.516c-1.822 0-3.303 1.445-3.303 3.22 0-1.78-1.476-3.22-3.302-3.22-1.822 0-3.303 1.445-3.303 3.22 0-1.78-1.475-3.22-3.302-3.22s-3.302 1.445-3.302 3.22c0-5.341 4.432-9.665 9.902-9.665 5.469 0 9.902 4.329 9.902 9.665 0-1.78-1.476-3.22-3.303-3.22h.011Z" vector-effect="non-scaling-stroke"/><path fill="#fff" d="M243.71 182.663v9.664c0 .888-.738 1.61-1.651 1.61s-1.651-.722-1.651-1.61" vector-effect="non-scaling-stroke"/><path stroke="#000" stroke-miterlimit="10" d="M243.71 182.663v9.664c0 .888-.738 1.61-1.651 1.61s-1.651-.722-1.651-1.61" vector-effect="non-scaling-stroke"/><path stroke="#000" stroke-linecap="round" stroke-linejoin="round" d="M13.498 10.346 1.688 5v88.313l11.81-6.208M286.816 159.174l11.811 5.351V76.207l-11.811 6.213" vector-effect="non-scaling-stroke"/><path fill="#fff" d="M31.667 28.989h13.931c.795 0 1.44.63 1.44 1.408v14.066c0 .774-.645 1.409-1.44 1.409H23.504c-.794 0-1.44-.63-1.44-1.409V30.397c0-.774.646-1.408 1.44-1.408h3.845" vector-effect="non-scaling-stroke"/><path stroke="#000" stroke-miterlimit="10" d="M31.667 28.989h13.931c.795 0 1.44.63 1.44 1.408v14.066c0 .774-.645 1.409-1.44 1.409H23.504c-.794 0-1.44-.63-1.44-1.409V30.397c0-.774.646-1.408 1.44-1.408h3.845" vector-effect="non-scaling-stroke"/><path fill="#fff" d="m44.49 32.147-8.948 8.297a1.455 1.455 0 0 1-.99.387c-.357 0-.713-.13-.992-.387l-8.947-8.297" vector-effect="non-scaling-stroke"/><path stroke="#000" stroke-miterlimit="10" d="m44.49 32.147-8.948 8.297a1.455 1.455 0 0 1-.99.387c-.357 0-.713-.13-.992-.387l-8.947-8.297M43.88 43.442l-4.804-3.282M30.02 40.16l-4.803 3.282" vector-effect="non-scaling-stroke"/><path fill="#fff" d="m31.326 25.573-1.579-1.548-1.584 1.548" vector-effect="non-scaling-stroke"/><path stroke="#000" stroke-miterlimit="10" d="m31.326 25.573-1.579-1.548-1.584 1.548" vector-effect="non-scaling-stroke"/><path fill="#fff" d="M275.191 189.536h7.874v-11.688h-2.518l-.944 1.538h-14.804v10.15h7.874" vector-effect="non-scaling-stroke"/><path stroke="#000" stroke-miterlimit="10" d="M275.191 189.536h7.874v-11.688h-2.518l-.944 1.538h-14.804v10.15h7.874" vector-effect="non-scaling-stroke"/><path fill="#fff" stroke="#000" stroke-miterlimit="10" d="M268.576 193.839a.934.934 0 0 1-.944.924.934.934 0 0 1-.945-.924c0-.511.423-.924.945-.924.521 0 .944.413.944.924ZM274.876 193.839a.934.934 0 0 1-.944.924.934.934 0 0 1-.944-.924c0-.511.423-.924.944-.924.521 0 .944.413.944.924ZM281.176 193.839a.934.934 0 0 1-.944.924.934.934 0 0 1-.944-.924c0-.511.423-.924.944-.924.521 0 .944.413.944.924Z" vector-effect="non-scaling-stroke"/><path fill="#fff" d="M273.932 192.915v-4.922Z" vector-effect="non-scaling-stroke"/><path stroke="#000" stroke-miterlimit="10" d="M273.932 192.915v-4.922" vector-effect="non-scaling-stroke"/><path fill="#fff" d="M267.632 192.915v-1.537h12.6v1.537" vector-effect="non-scaling-stroke"/><path stroke="#000" stroke-miterlimit="10" d="M267.632 192.915v-1.537h12.6v1.537" vector-effect="non-scaling-stroke"/><path fill="#fff" d="M267.002 178.158v-2.461h13.86v.923" vector-effect="non-scaling-stroke"/><path stroke="#000" stroke-miterlimit="10" d="M267.002 178.158v-2.461h13.86v.923" vector-effect="non-scaling-stroke"/><path fill="#fff" d="M272.668 187.998h2.518Z" vector-effect="non-scaling-stroke"/><path stroke="#000" stroke-miterlimit="10" d="M272.668 187.998h2.518" vector-effect="non-scaling-stroke"/><path fill="#fff" stroke="#000" stroke-miterlimit="10" d="M197.539 184.51s13.23-16.883 27.394 0c0 0-12.554 17.193-27.394 0Z" vector-effect="non-scaling-stroke"/><path fill="#fff" stroke="#000" stroke-miterlimit="10" d="M211.233 189.417c2.804 0 5.078-2.165 5.078-4.835s-2.274-4.835-5.078-4.835c-2.804 0-5.077 2.165-5.077 4.835s2.273 4.835 5.077 4.835Z" vector-effect="non-scaling-stroke"/><path fill="#fff" stroke="#000" stroke-linecap="round" stroke-linejoin="round" d="M179.324 125.919c0 6.13-11.373 19.984-11.373 19.984s-11.372-13.854-11.372-19.984c0-6.13 5.093-11.105 11.372-11.105 6.28 0 11.373 4.969 11.373 11.105Z" vector-effect="non-scaling-stroke"/><path fill="#fff" stroke="#000" stroke-linecap="round" stroke-linejoin="round" d="M173.638 125.919c0 3.065-2.544 5.552-5.687 5.552-3.142 0-5.686-2.487-5.686-5.552 0-3.065 2.544-5.553 5.686-5.553 3.143 0 5.687 2.488 5.687 5.553Z" vector-effect="non-scaling-stroke"/><path stroke="#000" stroke-miterlimit="10" d="M162.781 127.787c24.794-5.274 68.432-14.469 84.887-7.679 15.929 6.574 7.776-1.073 16.042 10.248M120.155 128.442c12.368 3.178 22.621 2.895 37.079.593" vector-effect="non-scaling-stroke"/><path fill="#A2A2A0" stroke="#000" stroke-miterlimit="10" d="M257.183 105.609a1.94 1.94 0 0 0-1.564.934l-15 25.361a1.85 1.85 0 0 0 .707 2.565c.294.165.624.252.96.252h30c1.063 0 1.925-.841 1.925-1.878 0-.33-.088-.65-.258-.939l-15-25.361a1.938 1.938 0 0 0-1.765-.934h-.005Z" vector-effect="non-scaling-stroke"/><path fill="#fff" stroke="#000" stroke-miterlimit="10" d="M258.922 129.752c0 .883-.733 1.6-1.636 1.6-.903 0-1.636-.717-1.636-1.6 0-.882.733-1.599 1.636-1.599.903 0 1.636.717 1.636 1.599ZM255.098 116.435c0-1.177.975-2.131 2.183-2.131 1.207 0 2.182.954 2.182 2.131l-1.094 8.524c0 .588-.49 1.068-1.093 1.068a1.08 1.08 0 0 1-1.094-1.068l-1.094-8.524h.01Z" vector-effect="non-scaling-stroke"/><path fill="#fff" d="M29.747 24.025v6.687c0 1.125.913 2.033 2.033 2.033" vector-effect="non-scaling-stroke"/><path stroke="#000" stroke-miterlimit="10" d="M29.747 24.025v6.687c0 1.125.913 2.033 2.033 2.033" vector-effect="non-scaling-stroke"/><path fill="#fff" d="M174.381 81.1v-2.896c0-1.862-1.553-3.38-3.463-3.38-1.909 0-3.462 1.518-3.462 3.38V81.1" vector-effect="non-scaling-stroke"/><path stroke="#000" stroke-miterlimit="10" d="M174.381 81.1v-2.896c0-1.862-1.553-3.38-3.463-3.38-1.909 0-3.462 1.518-3.462 3.38V81.1" vector-effect="non-scaling-stroke"/><path fill="#fff" stroke="#000" stroke-miterlimit="10" d="M175.077 80h-8.312a2.302 2.302 0 0 0-2.302 2.301v7.596a2.302 2.302 0 0 0 2.302 2.301h8.312a2.302 2.302 0 0 0 2.302-2.301V82.3A2.302 2.302 0 0 0 175.077 80Z" vector-effect="non-scaling-stroke"/><path fill="#fff" stroke="#000" stroke-miterlimit="10" d="M170.918 87.28a1.883 1.883 0 1 0 .001-3.766 1.883 1.883 0 0 0-.001 3.767Z" vector-effect="non-scaling-stroke"/><path stroke="#000" stroke-linecap="round" stroke-miterlimit="10" d="M170.918 85.397v4.087" vector-effect="non-scaling-stroke"/><path fill="#fff" d="M179.071 74.948h2.193a2.593 2.593 0 0 0 2.585-2.585V68.72a2.593 2.593 0 0 0-2.585-2.585h-20.686a2.593 2.593 0 0 0-2.585 2.585v3.643a2.593 2.593 0 0 0 2.585 2.585h2.193" vector-effect="non-scaling-stroke"/><path stroke="#000" stroke-miterlimit="10" d="M179.071 74.948h2.193a2.593 2.593 0 0 0 2.585-2.585V68.72a2.593 2.593 0 0 0-2.585-2.585h-20.686a2.593 2.593 0 0 0-2.585 2.585v3.643a2.593 2.593 0 0 0 2.585 2.585h2.193M161.512 68.947l4.489 3.19M163.756 68.287v4.51M166.001 68.947l-4.489 3.19M168.674 68.947l4.489 3.19M170.918 68.287v4.51M173.163 68.947l-4.489 3.19M175.836 68.947l4.489 3.19M178.08 68.287v4.51M180.325 68.947l-4.489 3.19" vector-effect="non-scaling-stroke"/></g><defs><clipPath id="a"><path fill="#fff" d="M0 0h300v212H0z"/></clipPath></defs></svg>